<mxfile host="app.diagrams.net" modified="2024-05-27T03:33:13.752Z" agent="Mozilla/5.0 (Macintosh; Intel Mac OS X 10_15_7) AppleWebKit/537.36 (KHTML, like Gecko) Chrome/124.0.0.0 Safari/537.36" etag="TKDgNpYEXjMCFrrNG_Aj" version="24.4.8" type="github">
  <diagram name="第 1 页" id="RBEY_2A4oiBo1kz_87f3">
    <mxGraphModel dx="1045" dy="561" grid="1" gridSize="10" guides="1" tooltips="1" connect="1" arrows="1" fold="1" page="1" pageScale="1" pageWidth="827" pageHeight="1169" math="0" shadow="0">
      <root>
        <mxCell id="0" />
        <mxCell id="1" parent="0" />
        <mxCell id="UB8d4_tiM_lJMWP3LsTh-32" value="&lt;div class=&quot;lake-content&quot;&gt;&lt;p style=&quot;margin: 0; padding: 0; min-height: 24px&quot; class=&quot;ne-p&quot; id=&quot;u88637d2d&quot;&gt;&lt;br&gt;&lt;/p&gt;&lt;/div&gt;" style="rounded=1;whiteSpace=wrap;html=1;fillColor=none;dashed=1;" vertex="1" parent="1">
          <mxGeometry x="425" y="190" width="305" height="230" as="geometry" />
        </mxCell>
        <mxCell id="2kVt4sEsCDVhdZk_hCZK-8" value="&lt;div class=&quot;lake-content&quot;&gt;&lt;p style=&quot;margin: 0; padding: 0; min-height: 24px&quot; class=&quot;ne-p&quot; id=&quot;u88637d2d&quot;&gt;&lt;br&gt;&lt;/p&gt;&lt;/div&gt;" style="rounded=1;whiteSpace=wrap;html=1;fillColor=none;" parent="1" vertex="1">
          <mxGeometry x="75" y="210" width="260" height="90" as="geometry" />
        </mxCell>
        <mxCell id="2kVt4sEsCDVhdZk_hCZK-17" style="edgeStyle=orthogonalEdgeStyle;rounded=0;orthogonalLoop=1;jettySize=auto;html=1;exitX=0.5;exitY=1;exitDx=0;exitDy=0;entryX=0.5;entryY=0;entryDx=0;entryDy=0;" parent="1" source="2kVt4sEsCDVhdZk_hCZK-1" target="2kVt4sEsCDVhdZk_hCZK-8" edge="1">
          <mxGeometry relative="1" as="geometry" />
        </mxCell>
        <mxCell id="2kVt4sEsCDVhdZk_hCZK-1" value="&lt;div class=&quot;lake-content&quot;&gt;&lt;p style=&quot;margin: 0; padding: 0; min-height: 24px&quot; class=&quot;ne-p&quot; id=&quot;u88637d2d&quot;&gt;&lt;span class=&quot;ne-text&quot;&gt;initCache&lt;/span&gt;&lt;/p&gt;&lt;/div&gt;" style="rounded=1;whiteSpace=wrap;html=1;fillColor=none;" parent="1" vertex="1">
          <mxGeometry x="147.5" y="130" width="115" height="50" as="geometry" />
        </mxCell>
        <mxCell id="2kVt4sEsCDVhdZk_hCZK-3" style="edgeStyle=orthogonalEdgeStyle;rounded=0;orthogonalLoop=1;jettySize=auto;html=1;exitX=0.5;exitY=1;exitDx=0;exitDy=0;entryX=0.5;entryY=0;entryDx=0;entryDy=0;" parent="1" source="2kVt4sEsCDVhdZk_hCZK-2" target="2kVt4sEsCDVhdZk_hCZK-1" edge="1">
          <mxGeometry relative="1" as="geometry" />
        </mxCell>
        <mxCell id="2kVt4sEsCDVhdZk_hCZK-2" value="项目启动" style="ellipse;whiteSpace=wrap;html=1;fillColor=none;" parent="1" vertex="1">
          <mxGeometry x="160" y="30" width="90" height="50" as="geometry" />
        </mxCell>
        <mxCell id="2kVt4sEsCDVhdZk_hCZK-12" style="edgeStyle=orthogonalEdgeStyle;rounded=0;orthogonalLoop=1;jettySize=auto;html=1;exitX=1;exitY=0.5;exitDx=0;exitDy=0;entryX=0;entryY=0.5;entryDx=0;entryDy=0;" parent="1" source="2kVt4sEsCDVhdZk_hCZK-5" target="2kVt4sEsCDVhdZk_hCZK-6" edge="1">
          <mxGeometry relative="1" as="geometry" />
        </mxCell>
        <mxCell id="2kVt4sEsCDVhdZk_hCZK-52" style="edgeStyle=orthogonalEdgeStyle;rounded=0;orthogonalLoop=1;jettySize=auto;html=1;exitX=0.5;exitY=1;exitDx=0;exitDy=0;entryX=0;entryY=0.5;entryDx=0;entryDy=0;" parent="1" source="2kVt4sEsCDVhdZk_hCZK-5" target="2kVt4sEsCDVhdZk_hCZK-47" edge="1">
          <mxGeometry relative="1" as="geometry" />
        </mxCell>
        <mxCell id="2kVt4sEsCDVhdZk_hCZK-5" value="&lt;div class=&quot;lake-content&quot;&gt;&lt;p style=&quot;font-size: 9px; margin: 0px; padding: 0px; min-height: 24px;&quot; class=&quot;ne-p&quot; id=&quot;u88637d2d&quot;&gt;init&lt;/p&gt;&lt;p style=&quot;font-size: 9px; margin: 0px; padding: 0px; min-height: 24px;&quot; class=&quot;ne-p&quot; id=&quot;u88637d2d&quot;&gt;cache&lt;/p&gt;&lt;p style=&quot;font-size: 9px; margin: 0px; padding: 0px; min-height: 24px;&quot; class=&quot;ne-p&quot; id=&quot;u88637d2d&quot;&gt;2&lt;/p&gt;&lt;/div&gt;" style="rounded=1;whiteSpace=wrap;html=1;fillColor=none;" parent="1" vertex="1">
          <mxGeometry x="140" y="220" width="30" height="70" as="geometry" />
        </mxCell>
        <mxCell id="2kVt4sEsCDVhdZk_hCZK-14" style="edgeStyle=orthogonalEdgeStyle;rounded=0;orthogonalLoop=1;jettySize=auto;html=1;exitX=1;exitY=0.5;exitDx=0;exitDy=0;entryX=0;entryY=0.5;entryDx=0;entryDy=0;" parent="1" source="2kVt4sEsCDVhdZk_hCZK-6" target="2kVt4sEsCDVhdZk_hCZK-7" edge="1">
          <mxGeometry relative="1" as="geometry" />
        </mxCell>
        <mxCell id="2kVt4sEsCDVhdZk_hCZK-55" style="edgeStyle=orthogonalEdgeStyle;rounded=0;orthogonalLoop=1;jettySize=auto;html=1;exitX=0.5;exitY=1;exitDx=0;exitDy=0;entryX=0;entryY=0.5;entryDx=0;entryDy=0;" parent="1" source="2kVt4sEsCDVhdZk_hCZK-6" target="2kVt4sEsCDVhdZk_hCZK-46" edge="1">
          <mxGeometry relative="1" as="geometry" />
        </mxCell>
        <mxCell id="2kVt4sEsCDVhdZk_hCZK-6" value="&lt;div class=&quot;lake-content&quot;&gt;&lt;p style=&quot;font-size: 9px; margin: 0px; padding: 0px; min-height: 24px;&quot; class=&quot;ne-p&quot; id=&quot;u88637d2d&quot;&gt;init&lt;/p&gt;&lt;p style=&quot;font-size: 9px; margin: 0px; padding: 0px; min-height: 24px;&quot; class=&quot;ne-p&quot; id=&quot;u88637d2d&quot;&gt;cache&lt;/p&gt;&lt;p style=&quot;font-size: 9px; margin: 0px; padding: 0px; min-height: 24px;&quot; class=&quot;ne-p&quot; id=&quot;u88637d2d&quot;&gt;3&lt;/p&gt;&lt;/div&gt;" style="rounded=1;whiteSpace=wrap;html=1;fillColor=none;" parent="1" vertex="1">
          <mxGeometry x="190" y="220" width="30" height="70" as="geometry" />
        </mxCell>
        <mxCell id="2kVt4sEsCDVhdZk_hCZK-16" style="edgeStyle=orthogonalEdgeStyle;rounded=0;orthogonalLoop=1;jettySize=auto;html=1;exitX=1;exitY=0.5;exitDx=0;exitDy=0;entryX=0;entryY=0.5;entryDx=0;entryDy=0;" parent="1" source="2kVt4sEsCDVhdZk_hCZK-7" target="2kVt4sEsCDVhdZk_hCZK-15" edge="1">
          <mxGeometry relative="1" as="geometry" />
        </mxCell>
        <mxCell id="2kVt4sEsCDVhdZk_hCZK-57" style="edgeStyle=orthogonalEdgeStyle;rounded=0;orthogonalLoop=1;jettySize=auto;html=1;exitX=0.5;exitY=1;exitDx=0;exitDy=0;entryX=0;entryY=0.5;entryDx=0;entryDy=0;" parent="1" source="2kVt4sEsCDVhdZk_hCZK-7" target="2kVt4sEsCDVhdZk_hCZK-45" edge="1">
          <mxGeometry relative="1" as="geometry" />
        </mxCell>
        <mxCell id="2kVt4sEsCDVhdZk_hCZK-7" value="&lt;div class=&quot;lake-content&quot;&gt;&lt;p style=&quot;font-size: 9px; margin: 0px; padding: 0px; min-height: 24px;&quot; class=&quot;ne-p&quot; id=&quot;u88637d2d&quot;&gt;init&lt;/p&gt;&lt;p style=&quot;font-size: 9px; margin: 0px; padding: 0px; min-height: 24px;&quot; class=&quot;ne-p&quot; id=&quot;u88637d2d&quot;&gt;cache&lt;/p&gt;&lt;p style=&quot;font-size: 9px; margin: 0px; padding: 0px; min-height: 24px;&quot; class=&quot;ne-p&quot; id=&quot;u88637d2d&quot;&gt;4&lt;/p&gt;&lt;/div&gt;" style="rounded=1;whiteSpace=wrap;html=1;fillColor=none;" parent="1" vertex="1">
          <mxGeometry x="240" y="220" width="30" height="70" as="geometry" />
        </mxCell>
        <mxCell id="2kVt4sEsCDVhdZk_hCZK-10" style="edgeStyle=orthogonalEdgeStyle;rounded=0;orthogonalLoop=1;jettySize=auto;html=1;exitX=1;exitY=0.5;exitDx=0;exitDy=0;entryX=0;entryY=0.5;entryDx=0;entryDy=0;" parent="1" source="2kVt4sEsCDVhdZk_hCZK-9" target="2kVt4sEsCDVhdZk_hCZK-5" edge="1">
          <mxGeometry relative="1" as="geometry" />
        </mxCell>
        <mxCell id="2kVt4sEsCDVhdZk_hCZK-49" style="edgeStyle=orthogonalEdgeStyle;rounded=0;orthogonalLoop=1;jettySize=auto;html=1;exitX=0.5;exitY=1;exitDx=0;exitDy=0;entryX=0;entryY=0.5;entryDx=0;entryDy=0;" parent="1" source="2kVt4sEsCDVhdZk_hCZK-9" target="2kVt4sEsCDVhdZk_hCZK-48" edge="1">
          <mxGeometry relative="1" as="geometry" />
        </mxCell>
        <mxCell id="2kVt4sEsCDVhdZk_hCZK-9" value="&lt;div style=&quot;font-size: 9px;&quot; class=&quot;lake-content&quot;&gt;&lt;p style=&quot;margin: 0; padding: 0; min-height: 24px&quot; class=&quot;ne-p&quot; id=&quot;u88637d2d&quot;&gt;init&lt;/p&gt;&lt;p style=&quot;margin: 0; padding: 0; min-height: 24px&quot; class=&quot;ne-p&quot; id=&quot;u88637d2d&quot;&gt;cache&lt;/p&gt;&lt;p style=&quot;margin: 0; padding: 0; min-height: 24px&quot; class=&quot;ne-p&quot; id=&quot;u88637d2d&quot;&gt;1&lt;/p&gt;&lt;/div&gt;" style="rounded=1;whiteSpace=wrap;html=1;fillColor=none;" parent="1" vertex="1">
          <mxGeometry x="90" y="220" width="30" height="70" as="geometry" />
        </mxCell>
        <mxCell id="2kVt4sEsCDVhdZk_hCZK-15" value="&lt;div class=&quot;lake-content&quot;&gt;&lt;p style=&quot;font-size: 9px; margin: 0px; padding: 0px; min-height: 24px;&quot; class=&quot;ne-p&quot; id=&quot;u88637d2d&quot;&gt;...&lt;/p&gt;&lt;/div&gt;" style="rounded=1;whiteSpace=wrap;html=1;fillColor=none;" parent="1" vertex="1">
          <mxGeometry x="290" y="220" width="30" height="70" as="geometry" />
        </mxCell>
        <mxCell id="2kVt4sEsCDVhdZk_hCZK-18" value="&lt;div class=&quot;lake-content&quot;&gt;&lt;p style=&quot;margin: 0; padding: 0; min-height: 24px&quot; class=&quot;ne-p&quot; id=&quot;u88637d2d&quot;&gt;&lt;br&gt;&lt;/p&gt;&lt;/div&gt;" style="rounded=1;whiteSpace=wrap;html=1;fillColor=none;dashed=1;" parent="1" vertex="1">
          <mxGeometry x="320" y="465" width="160" height="215" as="geometry" />
        </mxCell>
        <mxCell id="2kVt4sEsCDVhdZk_hCZK-32" style="edgeStyle=orthogonalEdgeStyle;rounded=0;orthogonalLoop=1;jettySize=auto;html=1;exitX=0.5;exitY=1;exitDx=0;exitDy=0;" parent="1" source="2kVt4sEsCDVhdZk_hCZK-25" target="2kVt4sEsCDVhdZk_hCZK-26" edge="1">
          <mxGeometry relative="1" as="geometry" />
        </mxCell>
        <mxCell id="2kVt4sEsCDVhdZk_hCZK-25" value="精卫触发" style="ellipse;whiteSpace=wrap;html=1;fillColor=none;" parent="1" vertex="1">
          <mxGeometry x="540" y="30" width="90" height="50" as="geometry" />
        </mxCell>
        <mxCell id="2kVt4sEsCDVhdZk_hCZK-34" style="edgeStyle=orthogonalEdgeStyle;rounded=0;orthogonalLoop=1;jettySize=auto;html=1;exitX=0.5;exitY=1;exitDx=0;exitDy=0;entryX=0.5;entryY=0;entryDx=0;entryDy=0;" parent="1" source="2kVt4sEsCDVhdZk_hCZK-26" target="2kVt4sEsCDVhdZk_hCZK-27" edge="1">
          <mxGeometry relative="1" as="geometry" />
        </mxCell>
        <mxCell id="2kVt4sEsCDVhdZk_hCZK-35" style="edgeStyle=orthogonalEdgeStyle;rounded=0;orthogonalLoop=1;jettySize=auto;html=1;exitX=0.5;exitY=1;exitDx=0;exitDy=0;entryX=0.5;entryY=0;entryDx=0;entryDy=0;" parent="1" source="2kVt4sEsCDVhdZk_hCZK-26" target="2kVt4sEsCDVhdZk_hCZK-28" edge="1">
          <mxGeometry relative="1" as="geometry" />
        </mxCell>
        <mxCell id="2kVt4sEsCDVhdZk_hCZK-36" style="edgeStyle=orthogonalEdgeStyle;rounded=0;orthogonalLoop=1;jettySize=auto;html=1;exitX=0.5;exitY=1;exitDx=0;exitDy=0;entryX=0.5;entryY=0;entryDx=0;entryDy=0;" parent="1" source="2kVt4sEsCDVhdZk_hCZK-26" target="2kVt4sEsCDVhdZk_hCZK-29" edge="1">
          <mxGeometry relative="1" as="geometry" />
        </mxCell>
        <mxCell id="2kVt4sEsCDVhdZk_hCZK-37" style="edgeStyle=orthogonalEdgeStyle;rounded=0;orthogonalLoop=1;jettySize=auto;html=1;exitX=0.5;exitY=1;exitDx=0;exitDy=0;entryX=0.5;entryY=0;entryDx=0;entryDy=0;" parent="1" source="2kVt4sEsCDVhdZk_hCZK-26" target="2kVt4sEsCDVhdZk_hCZK-31" edge="1">
          <mxGeometry relative="1" as="geometry" />
        </mxCell>
        <mxCell id="2kVt4sEsCDVhdZk_hCZK-26" value="&lt;div class=&quot;lake-content&quot;&gt;&lt;p style=&quot;margin: 0; padding: 0; min-height: 24px&quot; class=&quot;ne-p&quot; id=&quot;u88637d2d&quot;&gt;&lt;span class=&quot;ne-text&quot;&gt;change&lt;/span&gt;&lt;/p&gt;&lt;/div&gt;" style="rounded=1;whiteSpace=wrap;html=1;fillColor=none;" parent="1" vertex="1">
          <mxGeometry x="527.5" y="120" width="115" height="50" as="geometry" />
        </mxCell>
        <mxCell id="UB8d4_tiM_lJMWP3LsTh-20" style="edgeStyle=orthogonalEdgeStyle;rounded=0;orthogonalLoop=1;jettySize=auto;html=1;exitX=0.5;exitY=1;exitDx=0;exitDy=0;entryX=0.5;entryY=0;entryDx=0;entryDy=0;" edge="1" parent="1" source="2kVt4sEsCDVhdZk_hCZK-27" target="UB8d4_tiM_lJMWP3LsTh-15">
          <mxGeometry relative="1" as="geometry" />
        </mxCell>
        <mxCell id="2kVt4sEsCDVhdZk_hCZK-27" value="&lt;div class=&quot;lake-content&quot;&gt;&lt;p style=&quot;font-size: 9px; margin: 0px; padding: 0px; min-height: 24px;&quot; class=&quot;ne-p&quot; id=&quot;u88637d2d&quot;&gt;change&lt;br&gt;&lt;/p&gt;&lt;p style=&quot;font-size: 9px; margin: 0px; padding: 0px; min-height: 24px;&quot; class=&quot;ne-p&quot; id=&quot;u88637d2d&quot;&gt;cache&lt;/p&gt;&lt;p style=&quot;font-size: 9px; margin: 0px; padding: 0px; min-height: 24px;&quot; class=&quot;ne-p&quot; id=&quot;u88637d2d&quot;&gt;4&lt;/p&gt;&lt;/div&gt;" style="rounded=1;whiteSpace=wrap;html=1;fillColor=none;flipV=0;flipH=1;" parent="1" vertex="1">
          <mxGeometry x="520" y="220" width="30" height="70" as="geometry" />
        </mxCell>
        <mxCell id="UB8d4_tiM_lJMWP3LsTh-21" style="edgeStyle=orthogonalEdgeStyle;rounded=0;orthogonalLoop=1;jettySize=auto;html=1;exitX=0.5;exitY=1;exitDx=0;exitDy=0;" edge="1" parent="1" source="2kVt4sEsCDVhdZk_hCZK-28" target="UB8d4_tiM_lJMWP3LsTh-16">
          <mxGeometry relative="1" as="geometry" />
        </mxCell>
        <mxCell id="2kVt4sEsCDVhdZk_hCZK-28" value="&lt;div class=&quot;lake-content&quot;&gt;&lt;p style=&quot;font-size: 9px; margin: 0px; padding: 0px; min-height: 24px;&quot; class=&quot;ne-p&quot; id=&quot;u88637d2d&quot;&gt;change&lt;br&gt;&lt;/p&gt;&lt;p style=&quot;font-size: 9px; margin: 0px; padding: 0px; min-height: 24px;&quot; class=&quot;ne-p&quot; id=&quot;u88637d2d&quot;&gt;cache&lt;/p&gt;&lt;p style=&quot;font-size: 9px; margin: 0px; padding: 0px; min-height: 24px;&quot; class=&quot;ne-p&quot; id=&quot;u88637d2d&quot;&gt;3&lt;/p&gt;&lt;/div&gt;" style="rounded=1;whiteSpace=wrap;html=1;fillColor=none;flipV=0;flipH=1;" parent="1" vertex="1">
          <mxGeometry x="570" y="220" width="30" height="70" as="geometry" />
        </mxCell>
        <mxCell id="UB8d4_tiM_lJMWP3LsTh-22" style="edgeStyle=orthogonalEdgeStyle;rounded=0;orthogonalLoop=1;jettySize=auto;html=1;exitX=0.5;exitY=1;exitDx=0;exitDy=0;" edge="1" parent="1" source="2kVt4sEsCDVhdZk_hCZK-29" target="UB8d4_tiM_lJMWP3LsTh-17">
          <mxGeometry relative="1" as="geometry" />
        </mxCell>
        <mxCell id="2kVt4sEsCDVhdZk_hCZK-29" value="&lt;div class=&quot;lake-content&quot;&gt;&lt;p style=&quot;font-size: 9px; margin: 0px; padding: 0px; min-height: 24px;&quot; class=&quot;ne-p&quot; id=&quot;u88637d2d&quot;&gt;change&lt;br&gt;&lt;/p&gt;&lt;p style=&quot;font-size: 9px; margin: 0px; padding: 0px; min-height: 24px;&quot; class=&quot;ne-p&quot; id=&quot;u88637d2d&quot;&gt;cache&lt;/p&gt;&lt;p style=&quot;font-size: 9px; margin: 0px; padding: 0px; min-height: 24px;&quot; class=&quot;ne-p&quot; id=&quot;u88637d2d&quot;&gt;2&lt;/p&gt;&lt;/div&gt;" style="rounded=1;whiteSpace=wrap;html=1;fillColor=none;flipV=0;flipH=1;" parent="1" vertex="1">
          <mxGeometry x="620" y="220" width="30" height="70" as="geometry" />
        </mxCell>
        <mxCell id="UB8d4_tiM_lJMWP3LsTh-19" style="edgeStyle=orthogonalEdgeStyle;rounded=0;orthogonalLoop=1;jettySize=auto;html=1;exitX=0.5;exitY=1;exitDx=0;exitDy=0;entryX=0.5;entryY=0;entryDx=0;entryDy=0;" edge="1" parent="1" source="2kVt4sEsCDVhdZk_hCZK-30" target="UB8d4_tiM_lJMWP3LsTh-12">
          <mxGeometry relative="1" as="geometry" />
        </mxCell>
        <mxCell id="2kVt4sEsCDVhdZk_hCZK-30" value="&lt;div style=&quot;font-size: 9px;&quot; class=&quot;lake-content&quot;&gt;&lt;p style=&quot;margin: 0; padding: 0; min-height: 24px&quot; class=&quot;ne-p&quot; id=&quot;u88637d2d&quot;&gt;...&lt;/p&gt;&lt;/div&gt;" style="rounded=1;whiteSpace=wrap;html=1;fillColor=none;flipV=0;flipH=1;" parent="1" vertex="1">
          <mxGeometry x="470" y="220" width="30" height="70" as="geometry" />
        </mxCell>
        <mxCell id="UB8d4_tiM_lJMWP3LsTh-23" style="edgeStyle=orthogonalEdgeStyle;rounded=0;orthogonalLoop=1;jettySize=auto;html=1;exitX=0.5;exitY=1;exitDx=0;exitDy=0;entryX=0.5;entryY=0;entryDx=0;entryDy=0;" edge="1" parent="1" source="2kVt4sEsCDVhdZk_hCZK-31" target="UB8d4_tiM_lJMWP3LsTh-18">
          <mxGeometry relative="1" as="geometry" />
        </mxCell>
        <mxCell id="2kVt4sEsCDVhdZk_hCZK-31" value="&lt;div class=&quot;lake-content&quot;&gt;&lt;p style=&quot;font-size: 9px; margin: 0px; padding: 0px; min-height: 24px;&quot; class=&quot;ne-p&quot; id=&quot;u88637d2d&quot;&gt;change&lt;/p&gt;&lt;p style=&quot;font-size: 9px; margin: 0px; padding: 0px; min-height: 24px;&quot; class=&quot;ne-p&quot; id=&quot;u88637d2d&quot;&gt;cache&lt;/p&gt;&lt;p style=&quot;font-size: 9px; margin: 0px; padding: 0px; min-height: 24px;&quot; class=&quot;ne-p&quot; id=&quot;u88637d2d&quot;&gt;1&lt;/p&gt;&lt;/div&gt;" style="rounded=1;whiteSpace=wrap;html=1;fillColor=none;flipV=0;flipH=1;" parent="1" vertex="1">
          <mxGeometry x="670" y="220" width="30" height="70" as="geometry" />
        </mxCell>
        <mxCell id="2kVt4sEsCDVhdZk_hCZK-33" style="edgeStyle=orthogonalEdgeStyle;rounded=0;orthogonalLoop=1;jettySize=auto;html=1;exitX=0.5;exitY=1;exitDx=0;exitDy=0;entryX=0.556;entryY=-0.056;entryDx=0;entryDy=0;entryPerimeter=0;" parent="1" source="2kVt4sEsCDVhdZk_hCZK-26" target="2kVt4sEsCDVhdZk_hCZK-30" edge="1">
          <mxGeometry relative="1" as="geometry" />
        </mxCell>
        <mxCell id="2kVt4sEsCDVhdZk_hCZK-38" value="cache Map" style="text;html=1;align=center;verticalAlign=middle;whiteSpace=wrap;rounded=0;" parent="1" vertex="1">
          <mxGeometry x="365" y="430" width="75" height="30" as="geometry" />
        </mxCell>
        <mxCell id="2kVt4sEsCDVhdZk_hCZK-42" value="&lt;div style=&quot;font-size: 9px; line-height: 250%;&quot; class=&quot;lake-content&quot;&gt;&lt;p style=&quot;margin: 0px; padding: 0px; min-height: 24px; line-height: 250%;&quot; class=&quot;ne-p&quot; id=&quot;u88637d2d&quot;&gt;&lt;span style=&quot;background-color: initial;&quot;&gt;...&lt;/span&gt;&lt;br&gt;&lt;/p&gt;&lt;/div&gt;" style="rounded=1;whiteSpace=wrap;html=1;fillColor=none;align=center;verticalAlign=middle;" parent="1" vertex="1">
          <mxGeometry x="360" y="490" width="80" height="20" as="geometry" />
        </mxCell>
        <mxCell id="2kVt4sEsCDVhdZk_hCZK-45" value="&lt;div style=&quot;font-size: 9px; line-height: 250%;&quot; class=&quot;lake-content&quot;&gt;&lt;p style=&quot;margin: 0px; padding: 0px; min-height: 24px; line-height: 250%;&quot; class=&quot;ne-p&quot; id=&quot;u88637d2d&quot;&gt;&lt;span style=&quot;background-color: initial;&quot;&gt;local cache key 4&lt;/span&gt;&lt;br&gt;&lt;/p&gt;&lt;/div&gt;" style="rounded=1;whiteSpace=wrap;html=1;fillColor=none;align=center;verticalAlign=middle;" parent="1" vertex="1">
          <mxGeometry x="360" y="530" width="80" height="20" as="geometry" />
        </mxCell>
        <mxCell id="2kVt4sEsCDVhdZk_hCZK-46" value="&lt;div style=&quot;font-size: 9px; line-height: 250%;&quot; class=&quot;lake-content&quot;&gt;&lt;p style=&quot;margin: 0px; padding: 0px; min-height: 24px; line-height: 250%;&quot; class=&quot;ne-p&quot; id=&quot;u88637d2d&quot;&gt;&lt;span style=&quot;background-color: initial;&quot;&gt;local cache key 3&lt;/span&gt;&lt;br&gt;&lt;/p&gt;&lt;/div&gt;" style="rounded=1;whiteSpace=wrap;html=1;fillColor=none;align=center;verticalAlign=middle;" parent="1" vertex="1">
          <mxGeometry x="360" y="570" width="80" height="20" as="geometry" />
        </mxCell>
        <mxCell id="2kVt4sEsCDVhdZk_hCZK-47" value="&lt;div style=&quot;font-size: 9px; line-height: 250%;&quot; class=&quot;lake-content&quot;&gt;&lt;p style=&quot;margin: 0px; padding: 0px; min-height: 24px; line-height: 250%;&quot; class=&quot;ne-p&quot; id=&quot;u88637d2d&quot;&gt;&lt;span style=&quot;background-color: initial;&quot;&gt;local cache key 2&lt;/span&gt;&lt;br&gt;&lt;/p&gt;&lt;/div&gt;" style="rounded=1;whiteSpace=wrap;html=1;fillColor=none;align=center;verticalAlign=middle;" parent="1" vertex="1">
          <mxGeometry x="360" y="610" width="80" height="20" as="geometry" />
        </mxCell>
        <mxCell id="2kVt4sEsCDVhdZk_hCZK-48" value="&lt;div style=&quot;font-size: 9px; line-height: 250%;&quot; class=&quot;lake-content&quot;&gt;&lt;p style=&quot;margin: 0px; padding: 0px; min-height: 24px; line-height: 250%;&quot; class=&quot;ne-p&quot; id=&quot;u88637d2d&quot;&gt;local cache key 1&lt;br&gt;&lt;/p&gt;&lt;/div&gt;" style="rounded=1;whiteSpace=wrap;html=1;fillColor=none;align=center;verticalAlign=middle;" parent="1" vertex="1">
          <mxGeometry x="360" y="650" width="80" height="20" as="geometry" />
        </mxCell>
        <mxCell id="UB8d4_tiM_lJMWP3LsTh-30" style="edgeStyle=orthogonalEdgeStyle;rounded=0;orthogonalLoop=1;jettySize=auto;html=1;exitX=0.5;exitY=1;exitDx=0;exitDy=0;entryX=1;entryY=0.5;entryDx=0;entryDy=0;" edge="1" parent="1" source="UB8d4_tiM_lJMWP3LsTh-5" target="2kVt4sEsCDVhdZk_hCZK-18">
          <mxGeometry relative="1" as="geometry" />
        </mxCell>
        <mxCell id="UB8d4_tiM_lJMWP3LsTh-5" value="&lt;div class=&quot;lake-content&quot;&gt;&lt;p style=&quot;font-size: 9px; margin: 0px; padding: 0px; min-height: 24px;&quot; class=&quot;ne-p&quot; id=&quot;u88637d2d&quot;&gt;&lt;span style=&quot;font-size: 12px;&quot;&gt;diamond&amp;nbsp;&amp;nbsp;&lt;/span&gt;&lt;span style=&quot;background-color: initial; font-size: 12px;&quot;&gt;Listener process&lt;/span&gt;&lt;/p&gt;&lt;/div&gt;" style="rounded=1;whiteSpace=wrap;html=1;fillColor=none;flipV=0;flipH=1;spacing=0;spacingTop=6;" vertex="1" parent="1">
          <mxGeometry x="465" y="380" width="240" height="30" as="geometry" />
        </mxCell>
        <mxCell id="UB8d4_tiM_lJMWP3LsTh-12" value="&lt;div class=&quot;lake-content&quot;&gt;&lt;p style=&quot;font-size: 9px; margin: 0px; padding: 0px; min-height: 24px;&quot; class=&quot;ne-p&quot; id=&quot;u88637d2d&quot;&gt;...&lt;/p&gt;&lt;/div&gt;" style="rounded=1;whiteSpace=wrap;html=1;fillColor=none;flipV=0;flipH=1;" vertex="1" parent="1">
          <mxGeometry x="465" y="310" width="40" height="50" as="geometry" />
        </mxCell>
        <mxCell id="UB8d4_tiM_lJMWP3LsTh-15" value="&lt;div class=&quot;lake-content&quot;&gt;&lt;p style=&quot;font-size: 9px; margin: 0px; padding: 0px; min-height: 24px;&quot; class=&quot;ne-p&quot; id=&quot;u88637d2d&quot;&gt;更改diamond4&lt;/p&gt;&lt;/div&gt;" style="rounded=1;whiteSpace=wrap;html=1;fillColor=none;flipV=0;flipH=1;" vertex="1" parent="1">
          <mxGeometry x="515" y="310" width="40" height="50" as="geometry" />
        </mxCell>
        <mxCell id="UB8d4_tiM_lJMWP3LsTh-27" style="edgeStyle=orthogonalEdgeStyle;rounded=0;orthogonalLoop=1;jettySize=auto;html=1;exitX=0.5;exitY=1;exitDx=0;exitDy=0;entryX=0.5;entryY=0;entryDx=0;entryDy=0;" edge="1" parent="1" source="UB8d4_tiM_lJMWP3LsTh-16" target="UB8d4_tiM_lJMWP3LsTh-5">
          <mxGeometry relative="1" as="geometry" />
        </mxCell>
        <mxCell id="UB8d4_tiM_lJMWP3LsTh-16" value="&lt;div class=&quot;lake-content&quot;&gt;&lt;p style=&quot;font-size: 9px; margin: 0px; padding: 0px; min-height: 24px;&quot; class=&quot;ne-p&quot; id=&quot;u88637d2d&quot;&gt;更改diamond3&lt;/p&gt;&lt;/div&gt;" style="rounded=1;whiteSpace=wrap;html=1;fillColor=none;flipV=0;flipH=1;" vertex="1" parent="1">
          <mxGeometry x="565" y="310" width="40" height="50" as="geometry" />
        </mxCell>
        <mxCell id="UB8d4_tiM_lJMWP3LsTh-17" value="&lt;div class=&quot;lake-content&quot;&gt;&lt;p style=&quot;font-size: 9px; margin: 0px; padding: 0px; min-height: 24px;&quot; class=&quot;ne-p&quot; id=&quot;u88637d2d&quot;&gt;更改diamond2&lt;/p&gt;&lt;/div&gt;" style="rounded=1;whiteSpace=wrap;html=1;fillColor=none;flipV=0;flipH=1;" vertex="1" parent="1">
          <mxGeometry x="615" y="310" width="40" height="50" as="geometry" />
        </mxCell>
        <mxCell id="UB8d4_tiM_lJMWP3LsTh-18" value="&lt;div class=&quot;lake-content&quot;&gt;&lt;p style=&quot;font-size: 9px; margin: 0px; padding: 0px; min-height: 24px;&quot; class=&quot;ne-p&quot; id=&quot;u88637d2d&quot;&gt;更改diamond1&lt;/p&gt;&lt;/div&gt;" style="rounded=1;whiteSpace=wrap;html=1;fillColor=none;flipV=0;flipH=1;" vertex="1" parent="1">
          <mxGeometry x="665" y="310" width="40" height="50" as="geometry" />
        </mxCell>
        <mxCell id="UB8d4_tiM_lJMWP3LsTh-26" style="edgeStyle=orthogonalEdgeStyle;rounded=0;orthogonalLoop=1;jettySize=auto;html=1;exitX=0.5;exitY=1;exitDx=0;exitDy=0;entryX=0.71;entryY=0.047;entryDx=0;entryDy=0;entryPerimeter=0;" edge="1" parent="1" source="UB8d4_tiM_lJMWP3LsTh-15" target="UB8d4_tiM_lJMWP3LsTh-5">
          <mxGeometry relative="1" as="geometry" />
        </mxCell>
        <mxCell id="UB8d4_tiM_lJMWP3LsTh-28" style="edgeStyle=orthogonalEdgeStyle;rounded=0;orthogonalLoop=1;jettySize=auto;html=1;exitX=0.5;exitY=1;exitDx=0;exitDy=0;entryX=0.287;entryY=0.02;entryDx=0;entryDy=0;entryPerimeter=0;" edge="1" parent="1" source="UB8d4_tiM_lJMWP3LsTh-17" target="UB8d4_tiM_lJMWP3LsTh-5">
          <mxGeometry relative="1" as="geometry" />
        </mxCell>
        <mxCell id="UB8d4_tiM_lJMWP3LsTh-29" style="edgeStyle=orthogonalEdgeStyle;rounded=0;orthogonalLoop=1;jettySize=auto;html=1;exitX=0.5;exitY=1;exitDx=0;exitDy=0;entryX=0.08;entryY=0.02;entryDx=0;entryDy=0;entryPerimeter=0;" edge="1" parent="1" source="UB8d4_tiM_lJMWP3LsTh-18" target="UB8d4_tiM_lJMWP3LsTh-5">
          <mxGeometry relative="1" as="geometry" />
        </mxCell>
        <mxCell id="UB8d4_tiM_lJMWP3LsTh-31" style="edgeStyle=orthogonalEdgeStyle;rounded=0;orthogonalLoop=1;jettySize=auto;html=1;exitX=0.5;exitY=1;exitDx=0;exitDy=0;entryX=0.928;entryY=0.047;entryDx=0;entryDy=0;entryPerimeter=0;" edge="1" parent="1" source="UB8d4_tiM_lJMWP3LsTh-12" target="UB8d4_tiM_lJMWP3LsTh-5">
          <mxGeometry relative="1" as="geometry" />
        </mxCell>
      </root>
    </mxGraphModel>
  </diagram>
</mxfile>
